<svg width="180" height="180" xmlns="http://www.w3.org/2000/svg"><path d="M46.9 0A46.9 46.9 0 0 0 0 46.9V133A46.9 46.9 0 0 0 46.9 180H133a46.9 46.9 0 0 0 46.9-46.9V47A46.9 46.9 0 0 0 133.1 0Zm2 48.2a65.5 65.5 0 0 1 25.3 5 6 6 0 0 1 3 8l-3.6 8.3a6 6 0 0 1-8 3c-2.2-1-5-2-8.1-2.7-3-.7-5.9-1.1-9-1.1-8 0-13.2 2.1-17 6.3-4 4.2-6 10-6 18.5 0 5.4.8 10 2.3 13.9 1.6 3.5 3.8 6.1 7 8.1 3 1.8 7.3 3 13.4 3a53 53 0 0 0 7.7-.5c.5 0 .8-.2 1.3-.3V106H46.4a6 6 0 0 1-6-6v-8.6a6 6 0 0 1 6-6h26.4a6 6 0 0 1 6 6v37.5a6 6 0 0 1-4 5.7 84 84 0 0 1-28.8 4.2c-8.7 0-16.5-1.7-23-5.5a6 6 0 0 1-.1 0A37.8 37.8 0 0 1 8 117.2a6 6 0 0 1 0-.1 55 55 0 0 1-4.8-23.6c0-8.8 1.8-16.7 5.5-23.6 3.6-6.8 9-12.3 15.9-16 7-3.9 15.1-5.7 24.3-5.7Zm36.2 1h27.6a6 6 0 0 1 6 6V61a6 6 0 0 1-4.6 5.8l-4.4 1v51.7l4.3 1a6 6 0 0 1 4.7 5.8v5.6a6 6 0 0 1-6 6H85a6 6 0 0 1-6-6v-5.6a6 6 0 0 1 4.6-5.9l4.4-1V67.8l-4.4-1a6 6 0 0 1-4.6-5.8v-5.6a6 6 0 0 1 6-6zm42.4 0h42.7a6 6 0 0 1 6 6v8.6a6 6 0 0 1-6 6h-27v15h25a6 6 0 0 1 6 6v8.5a6 6 0 0 1-6 6h-25v26.5a6 6 0 0 1-6 6h-9.7a6 6 0 0 1-6-6V55.3a6 6 0 0 1 6-6z" overflow="visible" fill="#bd0000" paint-order="stroke fill markers"/></svg>