<svg viewBox="0 0 180 180" xmlns="http://www.w3.org/2000/svg"><g fill="red"><circle cx="71" cy="31.3" r="27.5"/><path d="M72 62c-26 0-48 21-48 48l-1 70h96v-8a40 40 0 0 1-7 1 40 40 0 0 1-40-40 40 40 0 0 1 40-41 40 40 0 0 1 7 1c-5-16-24-31-47-31Z" overflow="visible"/><path d="m125 159-22-1-16-16v-22l16-16 23 1 16 16-1 22z" fill="none" stroke="#000" stroke-width="16.7" stroke-linecap="round" stroke-linejoin="round"/><path d="m113 119 1 19 11-8" fill="none" stroke="#000" stroke-width="11.1" stroke-linecap="round" stroke-linejoin="round"/></g></svg>